<?xml version="1.0" encoding="utf-8"?>
<!-- Generator: Adobe Illustrator 28.0.0, SVG Export Plug-In . SVG Version: 6.00 Build 0)  -->
<svg version="1.1" id="Layer_1" xmlns="http://www.w3.org/2000/svg" xmlns:xlink="http://www.w3.org/1999/xlink" x="0px" y="0px"
	 viewBox="0 0 512 512" style="enable-background:new 0 0 512 512;" xml:space="preserve">
<style type="text/css">
	.st0{fill:#0500FF;}
	.st1{fill:url(#SVGID_1_);}
	.st2{fill:url(#SVGID_00000177448243473833280400000018104523200994900667_);}
</style>
<g>
	<path class="st0" d="M231.13,219.51h24.41v13.67c8-12.29,17.2-13.67,30.67-13.67v24.16h-6.13c-16.14,0-23.87,7.6-23.87,22.64v25.68
		h-25.07V219.51z"/>
	<path class="st0" d="M367.63,291.99h-25.06v-6.91c-5.47,6.35-12.93,9.11-22.13,9.11c-17.47,0-27.34-10.36-27.34-29.4v-45.28h25.07
		v39.62c0,8.97,4.4,14.21,11.86,14.21c7.46,0,12.54-5.11,12.54-13.8v-40.03h25.07L367.63,291.99L367.63,291.99z"/>
	<path class="st0" d="M373.75,269.61h23.48c1.07,5.24,4.67,7.45,13.33,7.45c7.07,0,11.2-1.65,11.2-4.69c0-2.35-2-3.87-7.73-5.11
		l-18.93-4.28c-12.67-2.89-19.07-10.21-19.07-21.95c0-15.47,11.33-23.47,33.33-23.47c22,0,32.8,7.8,34.67,24.51H420.7
		c-0.4-4.41-4.94-7.11-12.4-7.11c-6,0-9.86,1.93-9.86,4.83c0,2.48,2.53,4.41,7.6,5.67l19.86,4.83c13.06,3.17,19.34,9.8,19.34,20.57
		c0,14.91-12.94,23.75-34.93,23.75c-21.99,0-36.54-9.53-36.54-24.99h-0.03H373.75z"/>
	<path class="st0" d="M512,242.05v-22.54h-61.87v22.56h18.46v49.92h24.94v-49.93H512z"/>
	<path class="st0" d="M224.15,242.05v-22.54h-61.86v22.56h18.46v49.92h24.94v-49.93H224.15z"/>
	<path class="st0" d="M0,206.77l61.53-20v138.45C17.58,306.76,0,271.38,0,251.39V206.77z"/>
	
		<linearGradient id="SVGID_1_" gradientUnits="userSpaceOnUse" x1="58.9393" y1="171.3725" x2="109.3072" y2="353.5435" gradientTransform="matrix(1 0 0 -1 0 514)">
		<stop  offset="0.26" style="stop-color:#48FF91"/>
		<stop  offset="0.66" style="stop-color:#0094FF"/>
		<stop  offset="0.8" style="stop-color:#0038FF"/>
		<stop  offset="0.89" style="stop-color:#0500FF"/>
	</linearGradient>
	<path class="st1" d="M123.07,206.77l-61.53-20v138.45c43.95-18.46,61.53-53.84,61.53-73.84V206.77z"/>
	
		<linearGradient id="SVGID_00000048469122081307245130000004268515308163020182_" gradientUnits="userSpaceOnUse" x1="106.1328" y1="335.0516" x2="59.6539" y2="188.7952" gradientTransform="matrix(1 0 0 -1 0 514)">
		<stop  offset="0.02" style="stop-color:#0000FF"/>
		<stop  offset="0.08" style="stop-color:#0094FF"/>
		<stop  offset="0.16" style="stop-color:#48FF91"/>
		<stop  offset="0.42" style="stop-color:#0094FF"/>
		<stop  offset="0.68" style="stop-color:#0038FF"/>
		<stop  offset="0.9" style="stop-color:#0500FF"/>
	</linearGradient>
	<path style="fill:url(#SVGID_00000048469122081307245130000004268515308163020182_);" d="M123.07,206.77l-61.53-20v138.45
		c43.95-18.46,61.53-53.84,61.53-73.84V206.77z"/>
</g>
</svg>
